<?xml version="1.0" encoding="utf-8"?>
<!-- Generator: Adobe Illustrator 19.2.1, SVG Export Plug-In . SVG Version: 6.00 Build 0)  -->
<svg version="1.1" id="Layer_1" xmlns="http://www.w3.org/2000/svg" xmlns:xlink="http://www.w3.org/1999/xlink" x="0px" y="0px"
	 viewBox="0 0 24 24" style="enable-background:new 0 0 24 24;" xml:space="preserve">
<style type="text/css">
	.st0{display:none;fill:#FFFFFF;}
	.st1{fill:#FFFFFF;}
</style>
<g>
	<rect class="st0" width="24" height="24"/>
	<rect id="_x3C_Slice_x3E__81_" class="st0" width="24" height="24"/>
	<path class="st1" d="M21,17l-5.5-1C15,15,15,14.6,15,14c0.5-0.5,1.5-1,1.5-1.5C17,11,17,10,17,10c0.3-0.4,1-1,1-2s-1-2-1-2.5
		c0-4-2-5.5-5-5.5C9.2,0,7,1.5,7,5.5C7,6,6,7,6,8s0.7,1.7,1,2c0,0,0,1,0.5,2.5c0,0.5,1,1,1.5,1.5c0,0.5,0,1-0.5,2L3,17
		c-2,0.5-3,4-3,7h24C24,21,23,17.5,21,17z"/>
</g>
</svg>
