<?xml version="1.0" encoding="utf-8"?>
<!-- Generator: Adobe Illustrator 19.1.0, SVG Export Plug-In . SVG Version: 6.00 Build 0)  -->
<svg version="1.1" id="Layer_1" xmlns="http://www.w3.org/2000/svg" xmlns:xlink="http://www.w3.org/1999/xlink" x="0px" y="0px"
	 viewBox="-293 385 24 24" style="enable-background:new -293 385 24 24;" xml:space="preserve">
<style type="text/css">
	.st0{display:none;fill:#666666;}
	.st1{fill:#666666;}
</style>
<g>
	<rect x="-288" y="390" class="st0" width="14" height="14"/>
	<rect id="_x3C_Slice_x3E__81_" x="-288" y="390" class="st0" width="14" height="14"/>
	<path class="st1" d="M-275.8,399.9l-3.2-0.6c-0.3-0.6-0.3-0.8-0.3-1.2c0.3-0.3,0.9-0.6,0.9-0.9c0.3-0.9,0.3-1.5,0.3-1.5
		c0.2-0.2,0.6-0.6,0.6-1.2c0-0.6-0.6-1.2-0.6-1.5c0-2.3-1.2-3.2-2.9-3.2c-1.6,0-2.9,0.9-2.9,3.2c0,0.3-0.6,0.9-0.6,1.5
		c0,0.6,0.4,1,0.6,1.2c0,0,0,0.6,0.3,1.5c0,0.3,0.6,0.6,0.9,0.9c0,0.3,0,0.6-0.3,1.2l-3.2,0.6c-1.2,0.3-1.8,2.3-1.8,4.1h14
		C-274,402.3-274.6,400.2-275.8,399.9z"/>
</g>
</svg>
